<svg xmlns="http://www.w3.org/2000/svg" xmlns:xlink="http://www.w3.org/1999/xlink" viewBox="0 0 48 48"><defs><style>.a{fill:none;stroke-miterlimit:10;stroke-width:4px;stroke:url(#a);}.b{fill:url(#b);}.c{fill:url(#c);}</style><linearGradient id="a" x1="7.08" y1="41.05" x2="41.05" y2="7.08" gradientUnits="userSpaceOnUse"><stop offset="0" stop-color="#001220"/><stop offset="0.5" stop-color="#fa7268"/><stop offset="1" stop-color="#c62368"/></linearGradient><linearGradient id="b" x1="12.63" y1="29.91" x2="26.98" y2="15.57" xlink:href="#a"/><linearGradient id="c" x1="19.63" y1="31.13" x2="36.5" y2="14.26" xlink:href="#a"/></defs><title>favico-gradient</title><path class="a" d="M39.37,8.24A6.51,6.51,0,0,0,34.93,6.5H13.5a7,7,0,0,0-7,7V34.93a6.59,6.59,0,0,0,6.57,6.57H34.93a6.57,6.57,0,0,0,6.57-6.57V13.07A6.51,6.51,0,0,0,39.37,8.24Z"/><polygon class="b" points="23.02 11.61 23.02 36.39 19.11 36.39 19.11 15.49 14.06 15.49 14.06 11.61 23.02 11.61"/><polygon class="c" points="33.81 11.57 33.81 15.45 28.76 15.45 28.76 36.34 24.85 36.34 24.85 11.57 33.81 11.57"/></svg>