<svg xmlns="http://www.w3.org/2000/svg" xmlns:xlink="http://www.w3.org/1999/xlink" viewBox="0 0 64 64"><defs><style>.a{fill:none;stroke-miterlimit:10;stroke-width:5px;stroke:url(#a);}.b{fill:url(#b);}.c{fill:url(#c);}</style><linearGradient id="a" x1="8.08" y1="56.1" x2="56.11" y2="8.08" gradientUnits="userSpaceOnUse"><stop offset="0" stop-color="#001220"/><stop offset="0.5" stop-color="#fa7268"/><stop offset="1" stop-color="#c62368"/></linearGradient><linearGradient id="b" x1="15.76" y1="40.44" x2="36.25" y2="19.95" xlink:href="#a"/><linearGradient id="c" x1="25.76" y1="42.18" x2="49.86" y2="18.08" xlink:href="#a"/></defs><title>favico-gradient</title><path class="a" d="M54,9.48A9.32,9.32,0,0,0,47.61,7H17A10,10,0,0,0,7,17V47.61A9.4,9.4,0,0,0,16.39,57H47.61A9.38,9.38,0,0,0,57,47.61V16.39A9.33,9.33,0,0,0,54,9.48Z"/><polygon class="b" points="30.6 14.3 30.6 49.7 25.01 49.7 25.01 19.85 17.8 19.85 17.8 14.3 30.6 14.3"/><polygon class="c" points="46.01 14.24 46.01 19.79 38.8 19.79 38.8 49.63 33.21 49.63 33.21 14.24 46.01 14.24"/></svg>