<svg xmlns="http://www.w3.org/2000/svg" xmlns:xlink="http://www.w3.org/1999/xlink" viewBox="0 0 32 32"><defs><style>.a{fill:none;stroke-miterlimit:10;stroke-width:2px;stroke:url(#a);}.b{fill:url(#b);}.c{fill:url(#c);}</style><linearGradient id="a" x1="4.22" y1="27.88" x2="27.88" y2="4.21" gradientUnits="userSpaceOnUse"><stop offset="0" stop-color="#001220"/><stop offset="0.5" stop-color="#fa7268"/><stop offset="1" stop-color="#c62368"/></linearGradient><linearGradient id="b" x1="7.88" y1="20.22" x2="18.13" y2="9.98" xlink:href="#a"/><linearGradient id="c" x1="12.88" y1="21.09" x2="24.93" y2="9.04" xlink:href="#a"/></defs><title>favico-gradient</title><path class="a" d="M27,4.74A4.67,4.67,0,0,0,23.81,3.5H8.5a5,5,0,0,0-5,5V23.81A4.66,4.66,0,0,0,5,27.19,4.61,4.61,0,0,0,8.19,28.5H23.81a4.69,4.69,0,0,0,4.69-4.69V8.19A4.64,4.64,0,0,0,27,4.74Z"/><polygon class="b" points="15.3 7.15 15.3 24.85 12.51 24.85 12.51 9.93 8.9 9.93 8.9 7.15 15.3 7.15"/><polygon class="c" points="23.01 7.12 23.01 9.89 19.4 9.89 19.4 24.82 16.61 24.82 16.61 7.12 23.01 7.12"/></svg>