<svg xmlns="http://www.w3.org/2000/svg" xmlns:xlink="http://www.w3.org/1999/xlink" viewBox="0 0 24 24"><defs><style>.a{fill:none;stroke-miterlimit:10;stroke:url(#a);}.b{fill:url(#b);}.c{fill:url(#c);}</style><linearGradient id="a" x1="2.78" y1="21.29" x2="21.29" y2="2.78" gradientUnits="userSpaceOnUse"><stop offset="0" stop-color="#001220"/><stop offset="0.5" stop-color="#fa7268"/><stop offset="1" stop-color="#c62368"/></linearGradient><linearGradient id="b" x1="5.5" y1="15.38" x2="13.7" y2="7.18" xlink:href="#a"/><linearGradient id="c" x1="9.5" y1="16.07" x2="19.14" y2="6.43" xlink:href="#a"/></defs><title>favico-gradient</title><path class="a" d="M20.79,3a3.76,3.76,0,0,0-2.54-1H6A4,4,0,0,0,2,6V18.24A3.75,3.75,0,0,0,5.76,22H18.25A3.75,3.75,0,0,0,22,18.24V5.75A3.77,3.77,0,0,0,20.79,3Z"/><polygon class="b" points="11.44 4.92 11.44 19.08 9.21 19.08 9.21 7.14 6.32 7.14 6.32 4.92 11.44 4.92"/><polygon class="c" points="17.61 4.89 17.61 7.12 14.72 7.12 14.72 19.05 12.48 19.05 12.48 4.89 17.61 4.89"/></svg>