<svg xmlns="http://www.w3.org/2000/svg" xmlns:xlink="http://www.w3.org/1999/xlink" viewBox="0 0 16 16"><defs><style>.a{fill:none;stroke-miterlimit:10;stroke:url(#a);}.b{fill:url(#b);}.c{fill:url(#c);}</style><linearGradient id="a" x1="1.2" y1="15.05" x2="15.25" y2="1" gradientUnits="userSpaceOnUse"><stop offset="0" stop-color="#001220"/><stop offset="0.5" stop-color="#fa7268"/><stop offset="1" stop-color="#c62368"/></linearGradient><linearGradient id="b" x1="3.32" y1="10.53" x2="9.47" y2="4.39" xlink:href="#a"/><linearGradient id="c" x1="6.32" y1="11.05" x2="13.55" y2="3.82" xlink:href="#a"/></defs><title>favico-gradient</title><path class="a" d="M14.78,1.24A2.78,2.78,0,0,0,12.88.5H3.7a3,3,0,0,0-3,3v9.18A2.82,2.82,0,0,0,3.51,15.5h9.37a2.82,2.82,0,0,0,2.82-2.82V3.32A2.8,2.8,0,0,0,14.78,1.24Z"/><polygon class="b" points="7.78 2.69 7.78 13.31 6.1 13.31 6.1 4.36 3.94 4.36 3.94 2.69 7.78 2.69"/><polygon class="c" points="12.4 2.67 12.4 4.34 10.24 4.34 10.24 13.29 8.56 13.29 8.56 2.67 12.4 2.67"/></svg>