<svg xmlns="http://www.w3.org/2000/svg" xmlns:xlink="http://www.w3.org/1999/xlink" viewBox="0 0 96 96"><defs><style>.a{fill:none;stroke-miterlimit:10;stroke-width:7px;stroke:url(#a);}.b{fill:url(#b);}.c{fill:url(#c);}</style><linearGradient id="a" x1="10.08" y1="86.21" x2="86.22" y2="10.07" gradientUnits="userSpaceOnUse"><stop offset="0" stop-color="#001220"/><stop offset="0.5" stop-color="#fa7268"/><stop offset="1" stop-color="#c62368"/></linearGradient><linearGradient id="b" x1="22.01" y1="61.51" x2="54.8" y2="28.72" xlink:href="#a"/><linearGradient id="c" x1="38.02" y1="64.29" x2="76.57" y2="25.73" xlink:href="#a"/></defs><title>favico-gradient</title><path class="a" d="M83.14,12A14.91,14.91,0,0,0,73,8H24A16,16,0,0,0,8,24V73A15,15,0,0,0,23,88H73A15,15,0,0,0,88,73V23A14.91,14.91,0,0,0,83.14,12Z"/><polygon class="b" points="45.76 19.68 45.76 76.32 36.82 76.32 36.82 28.56 25.28 28.56 25.28 19.68 45.76 19.68"/><polygon class="c" points="70.42 19.58 70.42 28.46 58.88 28.46 58.88 76.21 49.94 76.21 49.94 19.58 70.42 19.58"/></svg>