<svg id="visual" viewBox="0 0 1920 960" width="1920" height="960" xmlns="http://www.w3.org/2000/svg" xmlns:xlink="http://www.w3.org/1999/xlink" version="1.1"><rect x="0" y="0" width="1920" height="960" fill="#001220"></rect><path d="M0 566L45.7 574C91.3 582 182.7 598 274.2 608.5C365.7 619 457.3 624 548.8 623.3C640.3 622.7 731.7 616.3 823 617.8C914.3 619.3 1005.7 628.7 1097 611.2C1188.3 593.7 1279.7 549.3 1371.2 554.2C1462.7 559 1554.3 613 1645.8 631.8C1737.3 650.7 1828.7 634.3 1874.3 626.2L1920 618L1920 961L1874.3 961C1828.7 961 1737.3 961 1645.8 961C1554.3 961 1462.7 961 1371.2 961C1279.7 961 1188.3 961 1097 961C1005.7 961 914.3 961 823 961C731.7 961 640.3 961 548.8 961C457.3 961 365.7 961 274.2 961C182.7 961 91.3 961 45.7 961L0 961Z" fill="#fa7268"></path><path d="M0 706L45.7 689.3C91.3 672.7 182.7 639.3 274.2 616.8C365.7 594.3 457.3 582.7 548.8 594.5C640.3 606.3 731.7 641.7 823 660.5C914.3 679.3 1005.7 681.7 1097 674.3C1188.3 667 1279.7 650 1371.2 651C1462.7 652 1554.3 671 1645.8 665.5C1737.3 660 1828.7 630 1874.3 615L1920 600L1920 961L1874.3 961C1828.7 961 1737.3 961 1645.8 961C1554.3 961 1462.7 961 1371.2 961C1279.7 961 1188.3 961 1097 961C1005.7 961 914.3 961 823 961C731.7 961 640.3 961 548.8 961C457.3 961 365.7 961 274.2 961C182.7 961 91.3 961 45.7 961L0 961Z" fill="#ef5f67"></path><path d="M0 746L45.7 738.8C91.3 731.7 182.7 717.3 274.2 714.8C365.7 712.3 457.3 721.7 548.8 713.3C640.3 705 731.7 679 823 669.8C914.3 660.7 1005.7 668.3 1097 669.7C1188.3 671 1279.7 666 1371.2 661.3C1462.7 656.7 1554.3 652.3 1645.8 672.3C1737.3 692.3 1828.7 736.7 1874.3 758.8L1920 781L1920 961L1874.3 961C1828.7 961 1737.3 961 1645.8 961C1554.3 961 1462.7 961 1371.2 961C1279.7 961 1188.3 961 1097 961C1005.7 961 914.3 961 823 961C731.7 961 640.3 961 548.8 961C457.3 961 365.7 961 274.2 961C182.7 961 91.3 961 45.7 961L0 961Z" fill="#e34c67"></path><path d="M0 799L45.7 806.5C91.3 814 182.7 829 274.2 825.7C365.7 822.3 457.3 800.7 548.8 792.3C640.3 784 731.7 789 823 794.2C914.3 799.3 1005.7 804.7 1097 798.5C1188.3 792.3 1279.7 774.7 1371.2 767.3C1462.7 760 1554.3 763 1645.8 759C1737.3 755 1828.7 744 1874.3 738.5L1920 733L1920 961L1874.3 961C1828.7 961 1737.3 961 1645.8 961C1554.3 961 1462.7 961 1371.2 961C1279.7 961 1188.3 961 1097 961C1005.7 961 914.3 961 823 961C731.7 961 640.3 961 548.8 961C457.3 961 365.7 961 274.2 961C182.7 961 91.3 961 45.7 961L0 961Z" fill="#d53867"></path><path d="M0 868L45.7 861.7C91.3 855.3 182.7 842.7 274.2 835.7C365.7 828.7 457.3 827.3 548.8 825C640.3 822.7 731.7 819.3 823 830.5C914.3 841.7 1005.7 867.3 1097 882.8C1188.3 898.3 1279.7 903.7 1371.2 903.8C1462.7 904 1554.3 899 1645.8 891.5C1737.3 884 1828.7 874 1874.3 869L1920 864L1920 961L1874.3 961C1828.7 961 1737.3 961 1645.8 961C1554.3 961 1462.7 961 1371.2 961C1279.7 961 1188.3 961 1097 961C1005.7 961 914.3 961 823 961C731.7 961 640.3 961 548.8 961C457.3 961 365.7 961 274.2 961C182.7 961 91.3 961 45.7 961L0 961Z" fill="#c62368"></path></svg>