<svg id="visual" viewBox="0 0 1920 1080" width="1920" height="1080" xmlns="http://www.w3.org/2000/svg" xmlns:xlink="http://www.w3.org/1999/xlink" version="1.1"><path d="M0 55L17.8 71.2C35.7 87.3 71.3 119.7 106.8 128.7C142.3 137.7 177.7 123.3 213.2 98C248.7 72.7 284.3 36.3 320 22C355.7 7.7 391.3 15.3 426.8 56.8C462.3 98.3 497.7 173.7 533.2 198.8C568.7 224 604.3 199 640 168.5C675.7 138 711.3 102 746.8 75C782.3 48 817.7 30 853.2 37.2C888.7 44.3 924.3 76.7 960 96.5C995.7 116.3 1031.3 123.7 1066.8 111C1102.3 98.3 1137.7 65.7 1173.2 67.3C1208.7 69 1244.3 105 1280 119.5C1315.7 134 1351.3 127 1386.8 136C1422.3 145 1457.7 170 1493.2 184.3C1528.7 198.7 1564.3 202.3 1600 195.2C1635.7 188 1671.3 170 1706.8 161C1742.3 152 1777.7 152 1813.2 168.2C1848.7 184.3 1884.3 216.7 1902.2 232.8L1920 249L1920 0L1902.2 0C1884.3 0 1848.7 0 1813.2 0C1777.7 0 1742.3 0 1706.8 0C1671.3 0 1635.7 0 1600 0C1564.3 0 1528.7 0 1493.2 0C1457.7 0 1422.3 0 1386.8 0C1351.3 0 1315.7 0 1280 0C1244.3 0 1208.7 0 1173.2 0C1137.7 0 1102.3 0 1066.8 0C1031.3 0 995.7 0 960 0C924.3 0 888.7 0 853.2 0C817.7 0 782.3 0 746.8 0C711.3 0 675.7 0 640 0C604.3 0 568.7 0 533.2 0C497.7 0 462.3 0 426.8 0C391.3 0 355.7 0 320 0C284.3 0 248.7 0 213.2 0C177.7 0 142.3 0 106.8 0C71.3 0 35.7 0 17.8 0L0 0Z" fill="#fafcfd"></path><path d="M0 98L17.8 123.2C35.7 148.3 71.3 198.7 106.8 223.8C142.3 249 177.7 249 213.2 245.5C248.7 242 284.3 235 320 200.8C355.7 166.7 391.3 105.3 426.8 146.7C462.3 188 497.7 332 533.2 393.2C568.7 454.3 604.3 432.7 640 393.2C675.7 353.7 711.3 296.3 746.8 255C782.3 213.7 817.7 188.3 853.2 195.5C888.7 202.7 924.3 242.3 960 237C995.7 231.7 1031.3 181.3 1066.8 154.3C1102.3 127.3 1137.7 123.7 1173.2 138C1208.7 152.3 1244.3 184.7 1280 209.8C1315.7 235 1351.3 253 1386.8 256.7C1422.3 260.3 1457.7 249.7 1493.2 278.5C1528.7 307.3 1564.3 375.7 1600 372C1635.7 368.3 1671.3 292.7 1706.8 272.8C1742.3 253 1777.7 289 1813.2 319.7C1848.7 350.3 1884.3 375.7 1902.2 388.3L1920 401L1920 247L1902.2 230.8C1884.3 214.7 1848.7 182.3 1813.2 166.2C1777.7 150 1742.3 150 1706.8 159C1671.3 168 1635.7 186 1600 193.2C1564.3 200.3 1528.7 196.7 1493.2 182.3C1457.7 168 1422.3 143 1386.8 134C1351.3 125 1315.7 132 1280 117.5C1244.3 103 1208.7 67 1173.2 65.3C1137.7 63.7 1102.3 96.3 1066.8 109C1031.3 121.7 995.7 114.3 960 94.5C924.3 74.7 888.7 42.3 853.2 35.2C817.7 28 782.3 46 746.8 73C711.3 100 675.7 136 640 166.5C604.3 197 568.7 222 533.2 196.8C497.7 171.7 462.3 96.3 426.8 55.2C391.3 14 355.7 7 320 21.3C284.3 35.7 248.7 71.3 213.2 96.3C177.7 121.3 142.3 135.7 106.8 126.7C71.3 117.7 35.7 85.3 17.8 69.2L0 53Z" fill="#f7fafc"></path><path d="M0 249L17.8 254.5C35.7 260 71.3 271 106.8 289C142.3 307 177.7 332 213.2 344.5C248.7 357 284.3 357 320 335.5C355.7 314 391.3 271 426.8 292.7C462.3 314.3 497.7 400.7 533.2 438.5C568.7 476.3 604.3 465.7 640 445.8C675.7 426 711.3 397 746.8 361C782.3 325 817.7 282 853.2 267.7C888.7 253.3 924.3 267.7 960 255C995.7 242.3 1031.3 202.7 1066.8 206.2C1102.3 209.7 1137.7 256.3 1173.2 276.2C1208.7 296 1244.3 289 1280 289C1315.7 289 1351.3 296 1386.8 312.2C1422.3 328.3 1457.7 353.7 1493.2 382.5C1528.7 411.3 1564.3 443.7 1600 443.7C1635.7 443.7 1671.3 411.3 1706.8 391.5C1742.3 371.7 1777.7 364.3 1813.2 391.3C1848.7 418.3 1884.3 479.7 1902.2 510.3L1920 541L1920 399L1902.2 386.3C1884.3 373.7 1848.7 348.3 1813.2 317.7C1777.7 287 1742.3 251 1706.8 270.8C1671.3 290.7 1635.7 366.3 1600 370C1564.3 373.7 1528.7 305.3 1493.2 276.5C1457.7 247.7 1422.3 258.3 1386.8 254.7C1351.3 251 1315.7 233 1280 207.8C1244.3 182.7 1208.7 150.3 1173.2 136C1137.7 121.7 1102.3 125.3 1066.8 152.3C1031.3 179.3 995.7 229.7 960 235C924.3 240.3 888.7 200.7 853.2 193.5C817.7 186.3 782.3 211.7 746.8 253C711.3 294.3 675.7 351.7 640 391.2C604.3 430.7 568.7 452.3 533.2 391.2C497.7 330 462.3 186 426.8 144.7C391.3 103.3 355.7 164.7 320 198.8C284.3 233 248.7 240 213.2 243.5C177.7 247 142.3 247 106.8 221.8C71.3 196.7 35.7 146.3 17.8 121.2L0 96Z" fill="#dfebf3"></path><path d="M0 584L17.8 616.5C35.7 649 71.3 714 106.8 735.7C142.3 757.3 177.7 735.7 213.2 732C248.7 728.3 284.3 742.7 320 674.2C355.7 605.7 391.3 454.3 426.8 413C462.3 371.7 497.7 440.3 533.2 543C568.7 645.7 604.3 782.3 640 784C675.7 785.7 711.3 652.3 746.8 632.5C782.3 612.7 817.7 706.3 853.2 756.8C888.7 807.3 924.3 814.7 960 798.5C995.7 782.3 1031.3 742.7 1066.8 686.8C1102.3 631 1137.7 559 1173.2 526.7C1208.7 494.3 1244.3 501.7 1280 505.3C1315.7 509 1351.3 509 1386.8 536C1422.3 563 1457.7 617 1493.2 658.3C1528.7 699.7 1564.3 728.3 1600 704.8C1635.7 681.3 1671.3 605.7 1706.8 618.3C1742.3 631 1777.7 732 1813.2 798.7C1848.7 865.3 1884.3 897.7 1902.2 913.8L1920 930L1920 539L1902.2 508.3C1884.3 477.7 1848.7 416.3 1813.2 389.3C1777.7 362.3 1742.3 369.7 1706.8 389.5C1671.3 409.3 1635.7 441.7 1600 441.7C1564.3 441.7 1528.7 409.3 1493.2 380.5C1457.7 351.7 1422.3 326.3 1386.8 310.2C1351.3 294 1315.7 287 1280 287C1244.3 287 1208.7 294 1173.2 274.2C1137.7 254.3 1102.3 207.7 1066.8 204.2C1031.3 200.7 995.7 240.3 960 253C924.3 265.7 888.7 251.3 853.2 265.7C817.7 280 782.3 323 746.8 359C711.3 395 675.7 424 640 443.8C604.3 463.7 568.7 474.3 533.2 436.5C497.7 398.7 462.3 312.3 426.8 290.7C391.3 269 355.7 312 320 333.5C284.3 355 248.7 355 213.2 342.5C177.7 330 142.3 305 106.8 287C71.3 269 35.7 258 17.8 252.5L0 247Z" fill="#dfebf3"></path><path d="M0 951L17.8 945.7C35.7 940.3 71.3 929.7 106.8 915.3C142.3 901 177.7 883 213.2 888.3C248.7 893.7 284.3 922.3 320 893.5C355.7 864.7 391.3 778.3 426.8 751.3C462.3 724.3 497.7 756.7 533.2 816.2C568.7 875.7 604.3 962.3 640 962.3C675.7 962.3 711.3 875.7 746.8 863C782.3 850.3 817.7 911.7 853.2 929.7C888.7 947.7 924.3 922.3 960 926C995.7 929.7 1031.3 962.3 1066.8 955.2C1102.3 948 1137.7 901 1173.2 838C1208.7 775 1244.3 696 1280 699.7C1315.7 703.3 1351.3 789.7 1386.8 852.7C1422.3 915.7 1457.7 955.3 1493.2 948.2C1528.7 941 1564.3 887 1600 824C1635.7 761 1671.3 689 1706.8 690.7C1742.3 692.3 1777.7 767.7 1813.2 832.3C1848.7 897 1884.3 951 1902.2 978L1920 1005L1920 928L1902.2 911.8C1884.3 895.7 1848.7 863.3 1813.2 796.7C1777.7 730 1742.3 629 1706.8 616.3C1671.3 603.7 1635.7 679.3 1600 702.8C1564.3 726.3 1528.7 697.7 1493.2 656.3C1457.7 615 1422.3 561 1386.8 534C1351.3 507 1315.7 507 1280 503.3C1244.3 499.7 1208.7 492.3 1173.2 524.7C1137.7 557 1102.3 629 1066.8 684.8C1031.3 740.7 995.7 780.3 960 796.5C924.3 812.7 888.7 805.3 853.2 754.8C817.7 704.3 782.3 610.7 746.8 630.5C711.3 650.3 675.7 783.7 640 782C604.3 780.3 568.7 643.7 533.2 541C497.7 438.3 462.3 369.7 426.8 411C391.3 452.3 355.7 603.7 320 672.2C284.3 740.7 248.7 726.3 213.2 730C177.7 733.7 142.3 755.3 106.8 733.7C71.3 712 35.7 647 17.8 614.5L0 582Z" fill="#f7fafc"></path><path d="M0 1081L17.8 1081C35.7 1081 71.3 1081 106.8 1081C142.3 1081 177.7 1081 213.2 1081C248.7 1081 284.3 1081 320 1081C355.7 1081 391.3 1081 426.8 1081C462.3 1081 497.7 1081 533.2 1081C568.7 1081 604.3 1081 640 1081C675.7 1081 711.3 1081 746.8 1081C782.3 1081 817.7 1081 853.2 1081C888.7 1081 924.3 1081 960 1081C995.7 1081 1031.3 1081 1066.8 1081C1102.3 1081 1137.7 1081 1173.2 1081C1208.7 1081 1244.3 1081 1280 1081C1315.7 1081 1351.3 1081 1386.8 1081C1422.3 1081 1457.7 1081 1493.2 1081C1528.7 1081 1564.3 1081 1600 1081C1635.7 1081 1671.3 1081 1706.8 1081C1742.3 1081 1777.7 1081 1813.2 1081C1848.7 1081 1884.3 1081 1902.2 1081L1920 1081L1920 1003L1902.2 976C1884.3 949 1848.7 895 1813.2 830.3C1777.7 765.7 1742.3 690.3 1706.8 688.7C1671.3 687 1635.7 759 1600 822C1564.3 885 1528.7 939 1493.2 946.2C1457.7 953.3 1422.3 913.7 1386.8 850.7C1351.3 787.7 1315.7 701.3 1280 697.7C1244.3 694 1208.7 773 1173.2 836C1137.7 899 1102.3 946 1066.8 953.2C1031.3 960.3 995.7 927.7 960 924C924.3 920.3 888.7 945.7 853.2 927.7C817.7 909.7 782.3 848.3 746.8 861C711.3 873.7 675.7 960.3 640 960.3C604.3 960.3 568.7 873.7 533.2 814.2C497.7 754.7 462.3 722.3 426.8 749.3C391.3 776.3 355.7 862.7 320 891.5C284.3 920.3 248.7 891.7 213.2 886.3C177.7 881 142.3 899 106.8 913.3C71.3 927.7 35.7 938.3 17.8 943.7L0 949Z" fill="#fafcfd"></path></svg>